<svg xmlns="http://www.w3.org/2000/svg" width="115" height="147" fill="none" viewBox="0 0 115 147">
    <g clip-path="url(#clip0)">
        <path fill="#fff" d="M15.682 46.151h1.706l1.732 4.772c.218.629.41 1.27.629 1.911h.064c.218-.641.398-1.283.616-1.91l1.706-4.773h1.72v9.442h-1.386v-4.669c0-.846.115-2.065.192-2.925h-.051l-.757 2.181-1.642 4.503h-.923l-1.655-4.502L16.889 48h-.052c.064.86.179 2.078.179 2.924v4.669h-1.334V46.15zM31.975 52.899h-3.284l-.808 2.694h-1.514l3.13-9.442h1.72l3.13 9.442H32.77l-.795-2.694zm-.36-1.168l-.371-1.27c-.32-1.026-.603-2.078-.898-3.143h-.051c-.27 1.078-.565 2.117-.873 3.143l-.385 1.27h2.579zM38.211 52.014l-2.835-5.863h1.59l1.091 2.502c.295.705.564 1.36.885 2.078h.052c.307-.719.615-1.373.897-2.078l1.105-2.502h1.552L39.7 52.014v3.579h-1.488l-.001-3.58z"/>
        <path fill-rule="evenodd" stroke="#fff" stroke-miterlimit="10" stroke-width="1.782" d="M114.057 16.083l-6.599 83.133-49.961 29.971c-16.653-9.992-33.307-19.982-49.961-29.971l-6.6-83.133L33.015.89H81.98l32.077 15.192z" clip-rule="evenodd"/>
        <path fill="#fff" d="M5.216 140.664l.395-1.871c1.568-.63 2.994-1.567 4.195-2.756h1.28l-2.26 10.781H6.714l1.557-7.426c-.944.584-1.975 1.014-3.055 1.272h.001zM17.887 144.632H13.67l.366-1.754 5.795-6.775h1.813l-1.411 6.746h1.301l-.373 1.782h-1.3l-.46 2.187h-1.974l.46-2.186zm.373-1.782l.694-3.342-2.828 3.34 2.134.002zM24.558 144.793h2.076l-.424 2.025h-2.075l.423-2.025zm1.198-5.738h2.067l-.424 2.032h-2.067l.424-2.032zM30.527 143.331c.006-1.113.191-2.219.549-3.274.448-1.35 1.023-2.353 1.724-3.011.62-.624 1.46-.978 2.339-.987.404-.011.805.068 1.175.231s.699.406.963.712c.558.628.837 1.542.837 2.741-.015 1.183-.221 2.357-.61 3.475-.31 1.057-.876 2.021-1.648 2.806-.62.621-1.462.972-2.34.976-.404.01-.806-.069-1.177-.232s-.701-.405-.967-.711c-.564-.628-.845-1.537-.845-2.726zm2.061.424c-.038.423.06.848.278 1.212.083.111.191.201.316.262.124.061.261.091.4.089.203-.005.402-.057.582-.15.18-.094.336-.228.456-.391.404-.482.762-1.433 1.075-2.851.215-.877.34-1.773.372-2.675.035-.407-.064-.813-.281-1.159-.084-.112-.192-.202-.318-.264-.125-.061-.263-.092-.402-.09-.195.006-.386.058-.557.151-.171.092-.318.224-.43.384-.424.516-.789 1.424-1.096 2.725-.233.902-.365 1.827-.395 2.757zM40.349 143.331c.006-1.113.19-2.219.548-3.274.448-1.35 1.023-2.353 1.725-3.011.62-.624 1.46-.978 2.339-.987.404-.011.805.068 1.175.231s.698.406.963.712c.558.628.837 1.542.837 2.741-.015 1.183-.221 2.357-.61 3.475-.31 1.057-.876 2.021-1.649 2.806-.62.621-1.46.972-2.338.976-.405.01-.807-.069-1.178-.232-.371-.163-.701-.405-.967-.711-.564-.628-.845-1.537-.845-2.726zm2.06.424c-.038.423.06.848.279 1.212.082.111.19.201.315.262.124.061.262.091.4.089.203-.005.402-.057.582-.15.18-.094.336-.228.457-.391.404-.482.762-1.433 1.074-2.851.215-.877.34-1.773.373-2.675.034-.407-.065-.813-.282-1.159-.083-.112-.192-.202-.317-.264-.125-.061-.263-.092-.402-.09-.195.006-.386.058-.557.151-.172.092-.319.224-.43.384-.424.516-.79 1.424-1.097 2.726-.232.901-.364 1.826-.394 2.756zM55.862 141.943h4.071l-.424 2.024h-4.07l.423-2.024zM68.773 140.664l.395-1.871c1.568-.63 2.995-1.566 4.195-2.756h1.28l-2.26 10.781h-2.111l1.556-7.426c-.944.584-1.975 1.014-3.055 1.272zM78.368 138.186l.402-1.937h7.068l-.315 1.491c-.559.48-1.057 1.026-1.483 1.626-.568.766-1.07 1.577-1.502 2.426-.43.825-.807 1.676-1.13 2.548-.314.805-.565 1.633-.752 2.477H78.66c.147-.751.355-1.489.621-2.207.4-1.152.901-2.268 1.497-3.332.619-1.101 1.346-2.136 2.17-3.092h-4.58zM88.116 144.793h2.076l-.424 2.025h-2.076l.424-2.025zm1.199-5.738h2.067l-.424 2.032h-2.067l.424-2.032zM94.897 140.664l.395-1.871c1.568-.63 2.995-1.567 4.195-2.756h1.279l-2.258 10.781h-2.112l1.556-7.426c-.944.584-1.975 1.014-3.055 1.272zM103.892 143.749l2.039-.183c-.005.098-.007.171-.007.219-.031.401.088.8.333 1.119.107.122.241.219.391.283.149.064.311.095.474.089.265-.01.524-.079.758-.202.235-.123.438-.298.596-.51.435-.561.652-1.261.611-1.97.029-.405-.093-.806-.344-1.125-.115-.127-.257-.226-.415-.292-.157-.065-.328-.096-.498-.088-.276 0-.548.065-.794.19-.28.145-.531.341-.741.577l-1.725-.132 1.63-5.474h5.386l-.395 1.915h-3.559l-.489 1.652c.197-.09.402-.16.614-.209.198-.045.402-.068.605-.069.376-.012.75.055 1.097.198.348.142.661.356.921.628.546.604.83 1.401.789 2.214-.006.764-.195 1.514-.552 2.189-.333.667-.844 1.228-1.477 1.622-.632.394-1.361.605-2.107.61-.415.014-.828-.057-1.215-.209-.386-.152-.738-.382-1.032-.675-.299-.315-.533-.687-.686-1.093-.154-.407-.225-.84-.208-1.274zM42.164 97.061l6.031-8.222C52.8 93.444 58.61 97.5 67.051 97.5c9.099 0 16.005-6.468 16.005-17.213 0-10.745-6.139-16.882-15.347-16.882-5.153 0-8.222 1.535-12.937 4.604l-6.139-4.056 2.412-38.26h40.89v10.634H62.007l-1.864 20.72c3.399-1.754 6.688-2.851 11.073-2.851 13.483 0 24.554 8.002 24.554 25.652 0 17.87-13.043 27.955-27.187 27.955-12.715.002-20.717-5.149-26.418-10.74z"/>
        <path fill="#fff" d="M39.429 94.83l6.13-8.36c4.68 4.682 10.587 8.806 19.17 8.806 9.25 0 16.27-6.576 16.27-17.498 0-10.923-6.24-17.164-15.602-17.164-5.24 0-8.359 1.56-13.15 4.681l-6.242-4.124 2.452-38.897h41.57v10.811H59.6L57.705 54.15c3.457-1.782 6.8-2.898 11.257-2.898 13.709 0 24.965 8.136 24.965 26.08 0 18.167-13.262 28.42-27.64 28.42-12.928 0-21.064-5.238-26.858-10.922z"/>
    </g>
    <defs>
        <clipPath id="clip0">
            <path fill="#fff" d="M0 0H114.994V147H0z"/>
        </clipPath>
    </defs>
</svg>
