<svg xmlns="http://www.w3.org/2000/svg" width="347" height="224" fill="none" viewBox="0 0 347 224">
    <g clip-path="url(#clip0)">
        <path fill="#83CDDF" d="M310.105 32.132h3.268v-3.47h-3.268v3.47z"/>
        <path fill="#83CDDF" d="M310.105 37.49h3.268v-3.472h-3.268v3.471z" opacity=".64"/>
        <path fill="#83CDDF" d="M310.105 42.795h3.268v-3.47h-3.268v3.47z" opacity=".4"/>
        <path fill="#83CDDF" d="M310.105 48.152h3.268v-3.47h-3.268v3.47z" opacity=".34"/>
        <path fill="#83CDDF" d="M310.105 53.509h3.268v-3.471h-3.268v3.47z" opacity=".22"/>
        <path fill="#83CDDF" d="M310.105 58.865h3.268v-3.47h-3.268v3.47z" opacity=".15"/>
        <path fill="#83CDDF" d="M299.395 42.795h3.268v-3.47h-3.268v3.47z" opacity=".4"/>
        <path fill="#83CDDF" d="M299.395 48.152h3.268v-3.47h-3.268v3.47z" opacity=".34"/>
        <path fill="#83CDDF" d="M299.395 53.509h3.268v-3.471h-3.268v3.47z" opacity=".22"/>
        <path fill="#83CDDF" d="M299.395 58.865h3.268v-3.47h-3.268v3.47z" opacity=".15"/>
        <path fill="#83CDDF" d="M304.674 48.152h3.268v-3.47h-3.268v3.47z" opacity=".34"/>
        <path fill="#83CDDF" d="M304.674 53.509h3.268v-3.471h-3.268v3.47z" opacity=".22"/>
        <path fill="#83CDDF" d="M304.674 58.865h3.268v-3.47h-3.268v3.47z" opacity=".15"/>
        <path fill="#83CDDF" d="M294.116 53.509h3.268v-3.471h-3.268v3.47z" opacity=".22"/>
        <path fill="#83CDDF" d="M294.116 58.866h3.268v-3.471h-3.268v3.47z" opacity=".15"/>
        <path fill="#83CDDF" d="M326.298 17.916h3.268v-4.578h-3.268v4.578z"/>
        <path fill="#83CDDF" d="M326.298 25.03h3.268v-4.578h-3.268v4.578z" opacity=".64"/>
        <path fill="#83CDDF" d="M326.298 32.144h3.268v-4.577h-3.268v4.577z" opacity=".4"/>
        <path fill="#83CDDF" d="M326.298 39.208h3.268v-4.577h-3.268v4.577z" opacity=".34"/>
        <path fill="#83CDDF" d="M326.298 46.322h3.268v-4.577h-3.268v4.577z" opacity=".22"/>
        <path fill="#83CDDF" d="M326.298 53.437h3.268v-4.578h-3.268v4.578z" opacity=".15"/>
        <path stroke="#83CDDF" stroke-miterlimit="10" stroke-width=".532" d="M342.905 58.15V8.05h-53.799V2.364h48.269v61.923"/>
        <path fill="#83CDDF" d="M337.375 65.696c.777 0 1.407-.63 1.407-1.409 0-.777-.63-1.408-1.407-1.408-.778 0-1.408.63-1.408 1.408 0 .778.63 1.409 1.408 1.409zM342.906 59.559c.777 0 1.408-.63 1.408-1.408 0-.778-.631-1.409-1.408-1.409-.778 0-1.408.63-1.408 1.409 0 .777.63 1.408 1.408 1.408zM337.375 34.91l-2.162-2.163V8.05h2.162V34.91zM311.028 2.163L313.241 0h24.637v2.163h-26.85zM36.667 203.108v2.767h1.559v-2.767h-1.559z"/>
        <path fill="#83CDDF" d="M38.943 203.122v2.767h1.559v-2.767h-1.559z" opacity=".82"/>
        <path fill="#83CDDF" d="M41.22 203.136v2.767h1.56v-2.767h-1.56z" opacity=".72"/>
        <path fill="#83CDDF" d="M43.497 203.1v2.767h1.559V203.1h-1.559z" opacity=".62"/>
        <path fill="#83CDDF" d="M45.773 203.114v2.767h1.56v-2.767h-1.56z" opacity=".53"/>
        <path fill="#83CDDF" d="M36.657 197.534v2.767h1.559v-2.767h-1.559z"/>
        <path fill="#83CDDF" d="M38.934 197.548v2.767h1.558v-2.767h-1.558z" opacity=".82"/>
        <path fill="#83CDDF" d="M41.21 197.563v2.766h1.56v-2.766h-1.56z" opacity=".72"/>
        <path fill="#83CDDF" d="M43.487 197.526v2.767h1.559v-2.767h-1.559z" opacity=".62"/>
        <path fill="#83CDDF" d="M45.764 197.54v2.767h1.558v-2.767h-1.558z" opacity=".53"/>
        <path fill="#83CDDF" d="M48.04 197.554v2.767h1.559v-2.767H48.04z" opacity=".41"/>
        <path fill="#83CDDF" d="M50.317 197.518v2.767h1.559v-2.767h-1.559z" opacity=".32"/>
        <path fill="#83CDDF" d="M36.647 191.961v2.766h1.558v-2.766h-1.558z"/>
        <path fill="#83CDDF" d="M38.923 191.975v2.766h1.558v-2.766h-1.558z" opacity=".82"/>
        <path fill="#83CDDF" d="M41.2 191.989v2.766h1.559v-2.766H41.2z" opacity=".72"/>
        <path fill="#83CDDF" d="M43.477 191.952v2.767h1.558v-2.767h-1.558z" opacity=".62"/>
        <path fill="#83CDDF" d="M45.753 191.966v2.767h1.559v-2.767h-1.56z" opacity=".53"/>
        <path fill="#83CDDF" d="M48.03 191.981v2.766h1.558v-2.766h-1.559z" opacity=".41"/>
        <path fill="#83CDDF" d="M50.307 191.944v2.767h1.558v-2.767h-1.558z" opacity=".32"/>
        <path fill="#83CDDF" d="M52.583 191.958v2.767h1.559v-2.767h-1.559z" opacity=".24"/>
        <path fill="#83CDDF" d="M36.637 186.387v2.767h1.558v-2.767h-1.558z"/>
        <path fill="#83CDDF" d="M38.913 186.401v2.767h1.559v-2.767h-1.559z" opacity=".82"/>
        <path fill="#83CDDF" d="M41.19 186.415v2.767h1.56v-2.767h-1.56z" opacity=".72"/>
        <path fill="#83CDDF" d="M43.467 186.379v2.766h1.559v-2.766h-1.56z" opacity=".62"/>
        <path fill="#83CDDF" d="M45.743 186.393v2.766h1.559v-2.766h-1.559z" opacity=".53"/>
        <path fill="#83CDDF" d="M36.627 180.813v2.767h1.559v-2.767h-1.559z"/>
        <path fill="#83CDDF" d="M38.903 180.827v2.767h1.559v-2.767h-1.559z" opacity=".82"/>
        <path fill="#83CDDF" d="M41.18 180.841v2.767h1.56v-2.767h-1.56z" opacity=".72"/>
        <path fill="#83CDDF" d="M43.457 180.805v2.767h1.559v-2.767h-1.559z" opacity=".62"/>
        <path fill="#83CDDF" d="M45.733 180.819v2.767h1.56v-2.767h-1.56z" opacity=".53"/>
        <path fill="#83CDDF" d="M48.01 180.833v2.767h1.558v-2.767H48.01z" opacity=".41"/>
        <path fill="#83CDDF" d="M50.287 180.797v2.767h1.559v-2.767h-1.559z" opacity=".32"/>
        <path fill="#83CDDF" d="M52.563 180.811v2.767h1.56v-2.767h-1.56z" opacity=".24"/>
        <path fill="#83CDDF" d="M26.347 203.996v1.258l2.715-2.716 2.715 2.716v-1.258l-2.062-2.112-.653-.604-.654.604h.05l-2.111 2.112z"/>
        <path fill="#83CDDF" d="M26.347 201.632v1.258l2.715-2.666 2.715 2.666v-1.258l-2.715-2.716-2.715 2.716zM18.804 199.972h-3.268v4.578h3.268v-4.578z"/>
        <path fill="#83CDDF" d="M18.804 192.829h-3.268v4.578h3.268v-4.578z" opacity=".64"/>
        <path fill="#83CDDF" d="M18.804 185.736h-3.268v4.578h3.268v-4.578z" opacity=".4"/>
        <path fill="#83CDDF" d="M18.804 178.644h-3.268v4.577h3.268v-4.577z" opacity=".34"/>
        <path fill="#83CDDF" d="M18.804 171.551h-3.268v4.577h3.268v-4.577z" opacity=".22"/>
        <path fill="#83CDDF" d="M18.804 164.458h-3.268v4.578h3.268v-4.578z" opacity=".15"/>
        <path stroke="#83CDDF" stroke-miterlimit="10" stroke-width=".532" d="M2.162 159.73v50.102h53.8v5.684H7.691v-61.923"/>
        <path fill="#83CDDF" d="M7.743 155.001c.777 0 1.408-.63 1.408-1.408 0-.778-.63-1.409-1.408-1.409-.778 0-1.408.631-1.408 1.409s.63 1.408 1.408 1.408zM2.162 161.138c.777 0 1.408-.63 1.408-1.408 0-.778-.63-1.409-1.408-1.409-.778 0-1.408.631-1.408 1.409s.63 1.408 1.408 1.408zM28.76 215.516l2.162-2.213h24.687v2.213h-26.85zM2.162 206.26L0 204.097v-24.649h2.162v26.812zM320.029 203.996v1.258l-2.715-2.716-2.715 2.716v-1.258l2.061-2.112.654-.604.653.604 2.062 2.112zM320.029 197.055v1.308l-2.715-2.717-2.715 2.717v-1.308l2.061-2.063.654-.603.653.603 2.062 2.063z"/>
        <path fill="#83CDDF" d="M320.029 201.632v1.258l-2.715-2.666-2.715 2.666v-1.258l2.715-2.716 2.715 2.716zM327.583 204.525h3.269v-4.577h-3.269v4.577z"/>
        <path fill="#83CDDF" d="M327.583 197.461h3.269v-4.577h-3.269v4.577z" opacity=".64"/>
        <path fill="#83CDDF" d="M327.583 190.347h3.269v-4.577h-3.269v4.577z" opacity=".4"/>
        <path fill="#83CDDF" d="M327.583 183.233h3.269v-4.578h-3.269v4.578z" opacity=".34"/>
        <path fill="#83CDDF" d="M327.583 176.119h3.269v-4.578h-3.269v4.578z" opacity=".22"/>
        <path fill="#83CDDF" d="M327.583 169.005h3.269v-4.578h-3.269v4.578z" opacity=".15"/>
        <path stroke="#83CDDF" stroke-miterlimit="10" stroke-width=".532" d="M344.213 159.73v50.102h-53.799v5.684h48.268v-61.923"/>
        <path fill="#83CDDF" d="M338.632 155.001c.778 0 1.408-.63 1.408-1.408 0-.778-.63-1.409-1.408-1.409-.777 0-1.407.631-1.407 1.409s.63 1.408 1.407 1.408zM344.213 161.138c.778 0 1.408-.63 1.408-1.408 0-.778-.63-1.409-1.408-1.409-.777 0-1.407.631-1.407 1.409s.63 1.408 1.407 1.408zM317.615 215.516l-2.162-2.213h-24.687v2.213h26.849zM344.213 206.26l2.162-2.163v-24.649h-2.162v26.812zM313.895 180.002h-20.313v1.308h20.313v-1.308z"/>
        <path fill="#83CDDF" d="M313.945 176.179h-12.57v1.308h12.57v-1.308z" opacity=".4"/>
        <path fill="#83CDDF" d="M313.895 172.406h-16.089v1.308h16.089v-1.308z" opacity=".34"/>
        <path fill="#83CDDF" d="M313.895 168.633h-14.079v1.308h14.079v-1.308z" opacity=".22"/>
        <path fill="#83CDDF" d="M313.945 164.861h-8.849v1.308h8.849v-1.308z" opacity=".15"/>
        <path stroke="#83CDDF" stroke-linecap="round" stroke-linejoin="round" stroke-miterlimit="10" stroke-width=".266" d="M46.71 19.568c0 3.37-2.715 6.087-6.084 6.087-3.369 0-6.084-2.717-6.084-6.087 0-3.37 2.715-6.087 6.084-6.087"/>
        <path stroke="#83CDDF" stroke-linecap="round" stroke-linejoin="round" stroke-miterlimit="10" stroke-width=".266" d="M40.626 15.091c2.464 0 4.475 2.012 4.475 4.477 0 2.465-2.011 4.477-4.475 4.477-2.463 0-4.475-2.012-4.475-4.477M35.497 31.238c2.363-2.364 6.235-2.364 8.648 0 2.363 2.365 2.363 6.238 0 8.653-2.413 2.364-6.285 2.364-8.648-.05"/>
        <path stroke="#83CDDF" stroke-linecap="round" stroke-linejoin="round" stroke-miterlimit="10" stroke-width=".266" d="M36.654 38.683c-1.76-1.76-1.76-4.577 0-6.288 1.76-1.76 4.575-1.76 6.285 0 1.76 1.76 1.76 4.578 0 6.288M36.302 56.692c-2.364-2.364-2.364-6.238 0-8.652 2.363-2.365 6.234-2.365 8.648 0 2.363 2.364 2.363 6.237 0 8.652"/>
        <path stroke="#83CDDF" stroke-linecap="round" stroke-linejoin="round" stroke-miterlimit="10" stroke-width=".266" d="M43.743 55.535c-1.76 1.76-4.575 1.76-6.285 0-1.76-1.76-1.76-4.578 0-6.288s4.576-1.76 6.285 0"/>
        <path fill="#83CDDF" d="M20.262 13.33h-3.268v4.578h3.268V13.33z"/>
        <path fill="#83CDDF" d="M20.262 20.423h-3.268v4.578h3.268v-4.578z" opacity=".64"/>
        <path fill="#83CDDF" d="M20.262 27.516h-3.268v4.578h3.268v-4.578z" opacity=".4"/>
        <path fill="#83CDDF" d="M20.262 34.659h-3.268v4.578h3.268v-4.578z" opacity=".34"/>
        <path fill="#83CDDF" d="M20.262 41.752h-3.268v4.577h3.268v-4.577z" opacity=".22"/>
        <path fill="#83CDDF" d="M20.262 48.844h-3.268v4.578h3.268v-4.578z" opacity=".15"/>
        <path stroke="#83CDDF" stroke-miterlimit="10" stroke-width=".532" d="M3.62 58.15V8.05h53.8V2.364H9.15v61.923"/>
        <path fill="#83CDDF" d="M9.2 65.696c.778 0 1.409-.63 1.409-1.409 0-.777-.63-1.408-1.408-1.408-.778 0-1.408.63-1.408 1.408 0 .778.63 1.409 1.408 1.409zM3.62 59.559c.777 0 1.408-.63 1.408-1.408 0-.778-.63-1.409-1.408-1.409-.778 0-1.408.63-1.408 1.409 0 .777.63 1.408 1.408 1.408zM9.15 34.91l2.213-2.163V8.05H9.15V34.91zM35.497 2.163L33.335 0H8.647v2.163h26.85zM57.797 14.524h20.312v-1.307H57.797v1.307z"/>
        <path fill="#83CDDF" d="M57.755 18.317h12.57v-1.308h-12.57v1.308z" opacity=".4"/>
        <path fill="#83CDDF" d="M57.791 22.11h16.09v-1.308H57.79v1.307z" opacity=".34"/>
        <path fill="#83CDDF" d="M57.784 25.902h14.078v-1.308H57.784v1.308z" opacity=".22"/>
        <path fill="#83CDDF" d="M57.76 29.695h8.848v-1.308H57.76v1.308z" opacity=".15"/>
        <path fill="#83CDDF" d="M6.335 90.043v1.307L3.62 88.635.955 91.35v-1.307l2.062-2.063.603-.603.654.603 2.061 2.063zM6.335 94.62v1.258L3.62 93.162.955 95.877V94.62l2.665-2.716 2.715 2.716zM6.335 83.151v1.258L3.62 81.743.955 84.409V83.15l2.062-2.062.603-.654.654.654 2.061 2.062z"/>
        <path fill="#83CDDF" d="M6.335 87.729v1.257L3.62 86.27.955 88.986V87.73l2.665-2.717 2.715 2.717zM57.168 166.219v1.962h-.301v-1.711h-.453v-.251h.754zM58.224 166.219v1.962h-.302v-1.71h-.452v-.252h.754zM58.677 167.175c0-.654.352-1.006.804-1.006.453 0 .805.352.805 1.006s-.352 1.006-.805 1.006c-.452.05-.804-.352-.804-1.006zm1.307 0c0-.503-.201-.755-.503-.755-.301 0-.503.252-.503.755s.202.754.503.754c.302.051.503-.201.503-.754zM61.14 166.219v1.962h-.302v-1.71h-.452v-.252h.754zM62.197 166.219v1.962h-.302v-1.71h-.453v-.252h.755zM62.648 167.175c0-.654.352-1.006.805-1.006.452 0 .804.352.804 1.006s-.352 1.006-.804 1.006c-.503.05-.805-.352-.805-1.006zm1.308 0c0-.503-.201-.755-.503-.755s-.503.252-.503.755.201.754.503.754c.302.051.503-.201.503-.754zM65.112 166.219v1.962h-.251v-1.71h-.453v-.252h.704zM66.168 166.219v1.962h-.301v-1.71h-.453v-.252h.754zM66.57 167.175c0-.654.352-1.006.805-1.006.452 0 .804.352.804 1.006s-.352 1.006-.804 1.006c-.453.05-.805-.352-.805-1.006zm1.358 0c0-.503-.201-.755-.503-.755s-.503.252-.503.755.201.754.503.754c.302.051.503-.201.503-.754zM69.084 166.219v1.962h-.301v-1.71h-.453v-.252h.754z"/>
        <path fill="#83CDDF" d="M22.525 88.785h-2.061v7.797h2.061v-7.797z" opacity=".15"/>
        <path fill="#83CDDF" d="M26.447 84.007h-2.061v12.575h2.061V84.007z" opacity=".22"/>
        <path fill="#83CDDF" d="M30.318 76.109h-2.061v20.423h2.061V76.109z" opacity=".34"/>
        <path fill="#83CDDF" d="M34.19 79.53H32.13v17.002h2.061V79.53z" opacity=".4"/>
        <path fill="#83CDDF" d="M38.062 75.908H36v20.674h2.062V75.908z" opacity=".64"/>
        <path fill="#83CDDF" d="M41.934 72.588h-2.062v23.994h2.062V72.588z" opacity=".8"/>
        <path fill="#83CDDF" d="M45.805 65.847h-2.062v30.685h2.062V65.847z"/>
        <path stroke="#83CDDF" stroke-miterlimit="10" stroke-width=".182" d="M1.207 101.512H43.19l21.922 21.932"/>
        <path fill="#83CDDF" d="M2.313 101.512c0 .604-.503 1.107-1.106 1.107-.604 0-1.106-.503-1.106-1.107s.502-1.107 1.106-1.107c.603 0 1.106.503 1.106 1.107zM66.167 123.444c0 .604-.502 1.107-1.106 1.107-.603 0-1.106-.503-1.106-1.107 0-.603.503-1.106 1.106-1.106.604 0 1.106.503 1.106 1.106z"/>
        <path stroke="#83CDDF" stroke-miterlimit="10" stroke-width=".182" d="M6.336 128.944l34.24 34.257h31.425"/>
        <path fill="#83CDDF" d="M7.542 128.944c0 .654-.553 1.208-1.206 1.208-.654 0-1.207-.554-1.207-1.208 0-.654.553-1.207 1.207-1.207.653 0 1.206.553 1.206 1.207zM73.257 163.201c0 .654-.553 1.207-1.207 1.207-.653 0-1.206-.553-1.206-1.207s.553-1.207 1.207-1.207c.653 0 1.206.553 1.206 1.207zM308.163 150.172v1.962h-.301v-1.71h-.453v-.252h.754zM309.219 150.172v1.962h-.302v-1.71h-.452v-.252h.754zM309.672 151.128c0-.654.352-1.006.804-1.006.453 0 .805.352.805 1.006s-.352 1.006-.805 1.006c-.452.05-.804-.352-.804-1.006zm1.307 0c0-.503-.201-.755-.503-.755-.301 0-.502.252-.502.755s.201.755.502.755c.302.05.503-.202.503-.755zM312.135 150.172v1.962h-.302v-1.71h-.452v-.252h.754zM313.192 150.172v1.962h-.302v-1.71h-.452v-.252h.754zM313.644 151.128c0-.654.352-1.006.804-1.006.453 0 .804.352.804 1.006s-.351 1.006-.804 1.006c-.452.05-.804-.352-.804-1.006zm1.307 0c0-.503-.201-.755-.503-.755s-.503.252-.503.755.201.755.503.755c.302.05.503-.202.503-.755zM316.108 150.172v1.962h-.302v-1.71h-.452v-.252h.754zM317.163 150.172v1.962h-.301v-1.71h-.453v-.252h.754zM317.616 151.128c0-.654.352-1.006.805-1.006.452 0 .804.352.804 1.006s-.352 1.006-.804 1.006c-.503.05-.805-.352-.805-1.006zm1.307 0c0-.503-.201-.755-.502-.755-.302 0-.503.252-.503.755s.201.755.503.755c.301.05.502-.202.502-.755zM320.079 150.172v1.962h-.301v-1.71h-.453v-.252h.754z"/>
        <path stroke="#83CDDF" stroke-miterlimit="10" stroke-width=".182" d="M338.984 141.017l-13.073 13.079h-20.614"/>
        <path fill="#83CDDF" d="M305.297 154.851c.417 0 .754-.338.754-.755s-.337-.755-.754-.755c-.416 0-.754.338-.754.755s.338.755.754.755zM338.985 141.772c.416 0 .754-.338.754-.755s-.338-.754-.754-.754c-.417 0-.755.337-.755.754s.338.755.755.755z"/>
    </g>
    <defs>
        <clipPath id="clip0">
            <path fill="#fff" d="M0 0H346.375V224H0z"/>
        </clipPath>
    </defs>
</svg>
