<svg xmlns="http://www.w3.org/2000/svg" width="1302" height="842" fill="none" viewBox="0 0 1302 842">
    <path fill="#83CDDF" d="M1165.66 120.783h12.29v-13.047h-12.29v13.047z"/>
    <path fill="#83CDDF" d="M1165.66 140.919h12.29v-13.047h-12.29v13.047z" opacity=".64"/>
    <path fill="#83CDDF" d="M1165.66 160.865h12.29v-13.047h-12.29v13.047z" opacity=".4"/>
    <path fill="#83CDDF" d="M1165.66 181h12.29v-13.046h-12.29V181z" opacity=".34"/>
    <path fill="#83CDDF" d="M1165.66 201.136h12.29v-13.047h-12.29v13.047z" opacity=".22"/>
    <path fill="#83CDDF" d="M1165.66 221.271h12.29v-13.046h-12.29v13.046z" opacity=".15"/>
    <path fill="#83CDDF" d="M1125.4 160.865h12.29v-13.047h-12.29v13.047z" opacity=".4"/>
    <path fill="#83CDDF" d="M1125.4 181h12.29v-13.046h-12.29V181z" opacity=".34"/>
    <path fill="#83CDDF" d="M1125.4 201.136h12.29v-13.047h-12.29v13.047z" opacity=".22"/>
    <path fill="#83CDDF" d="M1125.4 221.271h12.29v-13.046h-12.29v13.046z" opacity=".15"/>
    <path fill="#83CDDF" d="M1145.25 181h12.28v-13.047h-12.28V181z" opacity=".34"/>
    <path fill="#83CDDF" d="M1145.25 201.136h12.28v-13.047h-12.28v13.047z" opacity=".22"/>
    <path fill="#83CDDF" d="M1145.25 221.272h12.28v-13.047h-12.28v13.047z" opacity=".15"/>
    <path fill="#83CDDF" d="M1105.56 201.136h12.28v-13.047h-12.28v13.047z" opacity=".22"/>
    <path fill="#83CDDF" d="M1105.56 221.271h12.28v-13.046h-12.28v13.046z" opacity=".15"/>
    <path fill="#83CDDF" d="M1226.53 67.344h12.29V50.138h-12.29v17.206z"/>
    <path fill="#83CDDF" d="M1226.53 94.086h12.29V76.88h-12.29v17.207z" opacity=".64"/>
    <path fill="#83CDDF" d="M1226.53 120.828h12.29v-17.207h-12.29v17.207z" opacity=".4"/>
    <path fill="#83CDDF" d="M1226.53 147.38h12.29v-17.206h-12.29v17.206z" opacity=".34"/>
    <path fill="#83CDDF" d="M1226.53 174.122h12.29v-17.207h-12.29v17.207z" opacity=".22"/>
    <path fill="#83CDDF" d="M1226.53 200.864h12.29v-17.207h-12.29v17.207z" opacity=".15"/>
    <path stroke="#83CDDF" stroke-miterlimit="10" stroke-width="2" d="M1288.96 218.583V30.253h-202.23V8.888h181.44v232.765"/>
    <path fill="#83CDDF" d="M1268.17 246.946c2.92 0 5.29-2.37 5.29-5.294 0-2.924-2.37-5.294-5.29-5.294s-5.29 2.37-5.29 5.294c0 2.924 2.37 5.294 5.29 5.294zM1288.96 223.878c2.92 0 5.29-2.371 5.29-5.295s-2.37-5.294-5.29-5.294-5.29 2.37-5.29 5.294c0 2.924 2.37 5.295 5.29 5.295zM1268.17 131.226l-8.13-8.131V30.254h8.13v100.972zM1169.13 8.13l8.32-8.13h92.61v8.13h-100.93zM137.827 763.468v10.4h5.859v-10.4h-5.859z"/>
    <path fill="#83CDDF" d="M146.384 763.521v10.4h5.859v-10.4h-5.859z" opacity=".82"/>
    <path fill="#83CDDF" d="M154.942 763.574v10.4h5.859v-10.4h-5.859z" opacity=".72"/>
    <path fill="#83CDDF" d="M163.5 763.438v10.4h5.858v-10.4H163.5z" opacity=".62"/>
    <path fill="#83CDDF" d="M172.058 763.49v10.4h5.859v-10.4h-5.859z" opacity=".53"/>
    <path fill="#83CDDF" d="M137.789 742.517v10.4h5.859v-10.4h-5.859z"/>
    <path fill="#83CDDF" d="M146.347 742.57v10.4h5.859v-10.4h-5.859z" opacity=".82"/>
    <path fill="#83CDDF" d="M154.904 742.623v10.4h5.859v-10.4h-5.859z" opacity=".72"/>
    <path fill="#83CDDF" d="M163.462 742.487v10.399h5.859v-10.399h-5.859z" opacity=".62"/>
    <path fill="#83CDDF" d="M172.02 742.539v10.4h5.859v-10.4h-5.859z" opacity=".53"/>
    <path fill="#83CDDF" d="M180.578 742.593v10.399h5.859v-10.399h-5.859z" opacity=".41"/>
    <path fill="#83CDDF" d="M189.135 742.456v10.4h5.859v-10.4h-5.859z" opacity=".32"/>
    <path fill="#83CDDF" d="M137.751 721.566v10.4h5.859v-10.4h-5.859z"/>
    <path fill="#83CDDF" d="M146.309 721.619v10.399h5.859v-10.399h-5.859z" opacity=".82"/>
    <path fill="#83CDDF" d="M154.867 721.672v10.4h5.859v-10.4h-5.859z" opacity=".72"/>
    <path fill="#83CDDF" d="M163.424 721.535v10.4h5.859v-10.4h-5.859z" opacity=".62"/>
    <path fill="#83CDDF" d="M171.982 721.588v10.4h5.859v-10.4h-5.859z" opacity=".53"/>
    <path fill="#83CDDF" d="M180.54 721.641v10.4h5.859v-10.4h-5.859z" opacity=".41"/>
    <path fill="#83CDDF" d="M189.098 721.505v10.4h5.859v-10.4h-5.859z" opacity=".32"/>
    <path fill="#83CDDF" d="M197.655 721.557v10.4h5.859v-10.4h-5.859z" opacity=".24"/>
    <path fill="#83CDDF" d="M137.714 700.615v10.4h5.859v-10.4h-5.859z"/>
    <path fill="#83CDDF" d="M146.272 700.668v10.399h5.859v-10.399h-5.859z" opacity=".82"/>
    <path fill="#83CDDF" d="M154.83 700.721v10.4h5.859v-10.4h-5.859z" opacity=".72"/>
    <path fill="#83CDDF" d="M163.387 700.585v10.399h5.859v-10.399h-5.859z" opacity=".62"/>
    <path fill="#83CDDF" d="M171.945 700.637v10.4h5.859v-10.4h-5.859z" opacity=".53"/>
    <path fill="#83CDDF" d="M137.677 679.664v10.399h5.859v-10.399h-5.859z"/>
    <path fill="#83CDDF" d="M146.234 679.717v10.399h5.859v-10.399h-5.859z" opacity=".82"/>
    <path fill="#83CDDF" d="M154.792 679.77v10.4h5.859v-10.4h-5.859z" opacity=".72"/>
    <path fill="#83CDDF" d="M163.35 679.633v10.4h5.859v-10.4h-5.859z" opacity=".62"/>
    <path fill="#83CDDF" d="M171.908 679.686v10.4h5.859v-10.4h-5.859z" opacity=".53"/>
    <path fill="#83CDDF" d="M180.465 679.739v10.4h5.859v-10.4h-5.859z" opacity=".41"/>
    <path fill="#83CDDF" d="M189.023 679.603v10.4h5.859v-10.4h-5.859z" opacity=".32"/>
    <path fill="#83CDDF" d="M197.581 679.656v10.399h5.858v-10.399h-5.858z" opacity=".24"/>
    <path fill="#83CDDF" d="M99.034 766.808v4.727l10.206-10.21 10.206 10.21v-4.727l-7.749-7.942-2.457-2.269-2.457 2.269h.189l-7.938 7.942z"/>
    <path fill="#83CDDF" d="M99.034 757.921v4.727l10.206-10.021 10.206 10.021v-4.727L109.24 747.71l-10.206 10.211zM70.685 751.682H58.4v17.206h12.285v-17.206z"/>
    <path fill="#83CDDF" d="M70.685 724.831H58.4v17.207h12.285v-17.207z" opacity=".64"/>
    <path fill="#83CDDF" d="M70.685 698.17H58.4v17.207h12.285V698.17z" opacity=".4"/>
    <path fill="#83CDDF" d="M70.685 671.509H58.4v17.207h12.285v-17.207z" opacity=".34"/>
    <path fill="#83CDDF" d="M70.685 644.848H58.4v17.207h12.285v-17.207z" opacity=".22"/>
    <path fill="#83CDDF" d="M70.685 618.187H58.4v17.207h12.285v-17.207z" opacity=".15"/>
    <path stroke="#83CDDF" stroke-miterlimit="10" stroke-width="2" d="M8.127 600.412v188.33h202.227v21.367H28.917V577.344"/>
    <path fill="#83CDDF" d="M29.105 582.639c2.923 0 5.292-2.371 5.292-5.295s-2.369-5.294-5.292-5.294c-2.922 0-5.291 2.37-5.291 5.294 0 2.924 2.369 5.295 5.291 5.295zM8.127 605.707c2.922 0 5.292-2.37 5.292-5.294 0-2.924-2.37-5.295-5.292-5.295-2.923 0-5.292 2.371-5.292 5.295s2.37 5.294 5.292 5.294zM108.106 810.109l8.127-8.32h92.798v8.32H108.106zM8.127 775.317L0 767.187v-92.653h8.127v100.783zM1202.97 766.808v4.727l-10.21-10.21-10.21 10.21v-4.727l7.75-7.941 2.46-2.269 2.46 2.269 7.75 7.941zM1202.97 740.714v4.917l-10.21-10.211-10.21 10.211v-4.917l7.75-7.752 2.46-2.269 2.46 2.269 7.75 7.752z"/>
    <path fill="#83CDDF" d="M1202.97 757.921v4.728l-10.21-10.022-10.21 10.022v-4.728l10.21-10.21 10.21 10.21zM1231.36 768.796h12.29v-17.207h-12.29v17.207z"/>
    <path fill="#83CDDF" d="M1231.36 742.244h12.29v-17.207h-12.29v17.207z" opacity=".64"/>
    <path fill="#83CDDF" d="M1231.36 715.502h12.29v-17.207h-12.29v17.207z" opacity=".4"/>
    <path fill="#83CDDF" d="M1231.36 688.76h12.29v-17.206h-12.29v17.206z" opacity=".34"/>
    <path fill="#83CDDF" d="M1231.36 662.019h12.29v-17.207h-12.29v17.207z" opacity=".22"/>
    <path fill="#83CDDF" d="M1231.36 635.277h12.29V618.07h-12.29v17.207z" opacity=".15"/>
    <path stroke="#83CDDF" stroke-miterlimit="10" stroke-width="2" d="M1293.87 600.412v188.33h-202.22v21.367h181.43V577.344"/>
    <path fill="#83CDDF" d="M1272.89 582.639c2.93 0 5.3-2.371 5.3-5.295s-2.37-5.294-5.3-5.294c-2.92 0-5.29 2.37-5.29 5.294 0 2.924 2.37 5.295 5.29 5.295zM1293.87 605.707c2.93 0 5.29-2.37 5.29-5.294 0-2.924-2.36-5.295-5.29-5.295-2.92 0-5.29 2.371-5.29 5.295s2.37 5.294 5.29 5.294zM1193.89 810.109l-8.12-8.32h-92.8v8.32h100.92zM1293.87 775.317l8.13-8.13v-92.653h-8.13v100.783zM1179.91 676.615h-76.36v4.916h76.36v-4.916z"/>
    <path fill="#83CDDF" d="M1180.1 662.244h-47.25v4.916h47.25v-4.916z" opacity=".4"/>
    <path fill="#83CDDF" d="M1179.91 648.062h-60.48v4.917h60.48v-4.917z" opacity=".34"/>
    <path fill="#83CDDF" d="M1179.91 633.881h-52.92v4.916h52.92v-4.916z" opacity=".22"/>
    <path fill="#83CDDF" d="M1180.1 619.7h-33.27v4.916h33.27V619.7z" opacity=".15"/>
    <path stroke="#83CDDF" stroke-linecap="round" stroke-linejoin="round" stroke-miterlimit="10" d="M175.578 73.555c0 12.668-10.206 22.879-22.869 22.879s-22.869-10.21-22.869-22.88c0-12.668 10.206-22.879 22.869-22.879"/>
    <path stroke="#83CDDF" stroke-linecap="round" stroke-linejoin="round" stroke-miterlimit="10" d="M152.71 56.726c9.261 0 16.821 7.563 16.821 16.828 0 9.266-7.56 16.829-16.821 16.829-9.261 0-16.821-7.563-16.821-16.829M133.433 117.422c8.882-8.887 23.435-8.887 32.507 0 8.883 8.887 8.883 23.447 0 32.523-9.072 8.887-23.625 8.887-32.507-.189"/>
    <path stroke="#83CDDF" stroke-linecap="round" stroke-linejoin="round" stroke-miterlimit="10" d="M137.779 145.407c-6.615-6.618-6.615-17.207 0-23.636 6.615-6.618 17.199-6.618 23.625 0 6.615 6.618 6.615 17.207 0 23.636M136.456 213.1c-8.883-8.887-8.883-23.447 0-32.523 8.883-8.887 23.436-8.887 32.508 0 8.882 8.887 8.882 23.447 0 32.523"/>
    <path stroke="#83CDDF" stroke-linecap="round" stroke-linejoin="round" stroke-miterlimit="10" d="M164.428 208.751c-6.615 6.618-17.199 6.618-23.625 0-6.615-6.618-6.615-17.207 0-23.636 6.615-6.429 17.199-6.618 23.625 0"/>
    <path fill="#83CDDF" d="M76.166 50.108H63.88v17.207h12.285V50.108z"/>
    <path fill="#83CDDF" d="M76.166 76.769H63.88v17.207h12.285V76.769z" opacity=".64"/>
    <path fill="#83CDDF" d="M76.166 103.43H63.88v17.207h12.285V103.43z" opacity=".4"/>
    <path fill="#83CDDF" d="M76.166 130.28H63.88v17.207h12.285V130.28z" opacity=".34"/>
    <path fill="#83CDDF" d="M76.166 156.942H63.88v17.206h12.285v-17.206z" opacity=".22"/>
    <path fill="#83CDDF" d="M76.166 183.603H63.88v17.206h12.285v-17.206z" opacity=".15"/>
    <path stroke="#83CDDF" stroke-miterlimit="10" stroke-width="2" d="M13.608 218.583V30.253h202.227V8.888H34.398v232.765"/>
    <path fill="#83CDDF" d="M34.586 246.946c2.923 0 5.292-2.37 5.292-5.294 0-2.924-2.369-5.294-5.292-5.294-2.922 0-5.292 2.37-5.292 5.294 0 2.924 2.37 5.294 5.292 5.294zM13.608 223.878c2.922 0 5.292-2.371 5.292-5.295s-2.37-5.294-5.292-5.294c-2.923 0-5.292 2.37-5.292 5.294 0 2.924 2.37 5.295 5.292 5.295zM34.398 131.226l8.315-8.131V30.254h-8.316v100.972zM133.432 8.13L125.305 0H32.507v8.13h100.925zM217.253 54.596h76.355V49.68h-76.355v4.916z"/>
    <path fill="#83CDDF" d="M217.097 68.852h47.25v-4.916h-47.25v4.916z" opacity=".4"/>
    <path fill="#83CDDF" d="M217.234 83.108h60.479v-4.916h-60.479v4.916z" opacity=".34"/>
    <path fill="#83CDDF" d="M217.208 97.364h52.919v-4.916h-52.919v4.916z" opacity=".22"/>
    <path fill="#83CDDF" d="M217.115 111.62h33.264v-4.917h-33.264v4.917z" opacity=".15"/>
    <path fill="#83CDDF" d="M23.814 338.464v4.916l-10.206-10.211L3.59 343.38v-4.916l7.749-7.753 2.268-2.269 2.457 2.269 7.748 7.753zM23.814 355.671v4.727l-10.206-10.211L3.59 360.398v-4.727l10.017-10.211 10.206 10.211zM23.814 312.559v4.727l-10.206-10.021L3.59 317.286v-4.727l7.749-7.752 2.268-2.459 2.457 2.459 7.748 7.752z"/>
    <path fill="#83CDDF" d="M23.814 329.766v4.727l-10.206-10.211L3.59 334.493v-4.727l10.017-10.211 10.206 10.211zM214.89 624.804v7.375h-1.134v-6.429h-1.701v-.946h2.835zM218.858 624.805v7.374h-1.134v-6.429h-1.701v-.945h2.835zM220.56 628.397c0-2.458 1.323-3.781 3.024-3.781s3.023 1.323 3.023 3.781c0 2.459-1.322 3.782-3.023 3.782-1.701.189-3.024-1.323-3.024-3.782zm4.914 0c0-1.89-.756-2.836-1.89-2.836s-1.89.946-1.89 2.836c0 1.891.756 2.837 1.89 2.837 1.134.189 1.89-.757 1.89-2.837zM229.82 624.805v7.374h-1.134v-6.429h-1.701v-.945h2.835zM233.79 624.805v7.374h-1.134v-6.429h-1.701v-.945h2.835zM235.49 628.397c0-2.458 1.323-3.781 3.024-3.781s3.024 1.323 3.024 3.781c0 2.459-1.323 3.782-3.024 3.782-1.89.189-3.024-1.323-3.024-3.782zm4.914 0c0-1.89-.756-2.836-1.89-2.836s-1.89.946-1.89 2.836c0 1.891.756 2.837 1.89 2.837 1.134.189 1.89-.757 1.89-2.837zM244.751 624.805v7.374h-.945v-6.429h-1.701v-.945h2.646zM248.72 624.805v7.374h-1.134v-6.429h-1.701v-.945h2.835zM250.232 628.397c0-2.458 1.323-3.781 3.024-3.781s3.024 1.323 3.024 3.781c0 2.459-1.323 3.782-3.024 3.782-1.701.189-3.024-1.323-3.024-3.782zm5.103 0c0-1.89-.756-2.836-1.89-2.836s-1.89.946-1.89 2.836c0 1.891.756 2.837 1.89 2.837 1.134.189 1.89-.757 1.89-2.837zM259.682 624.805v7.374h-1.134v-6.429h-1.701v-.945h2.835z"/>
    <path fill="#83CDDF" d="M84.67 333.737h-7.748v29.308h7.749v-29.308z" opacity=".15"/>
    <path fill="#83CDDF" d="M99.412 315.774h-7.748v47.271h7.748v-47.271z" opacity=".22"/>
    <path fill="#83CDDF" d="M113.965 286.087h-7.749v76.769h7.749v-76.769z" opacity=".34"/>
    <path fill="#83CDDF" d="M128.518 298.945h-7.749v63.911h7.749v-63.911z" opacity=".4"/>
    <path fill="#83CDDF" d="M143.071 285.331h-7.749v77.714h7.749v-77.714z" opacity=".64"/>
    <path fill="#83CDDF" d="M157.623 272.851h-7.748v90.194h7.748v-90.194z" opacity=".8"/>
    <path fill="#83CDDF" d="M172.176 247.514h-7.749v115.342h7.749V247.514z"/>
    <path stroke="#83CDDF" stroke-miterlimit="10" stroke-width=".684" d="M4.536 381.576h157.812l82.403 82.441"/>
    <path fill="#83CDDF" d="M8.694 381.576c0 2.269-1.89 4.16-4.158 4.16-2.268 0-4.158-1.891-4.158-4.16s1.89-4.16 4.158-4.16c2.268 0 4.158 1.891 4.158 4.16zM248.72 464.017c0 2.269-1.89 4.16-4.158 4.16-2.268 0-4.158-1.891-4.158-4.16s1.89-4.16 4.158-4.16c2.268 0 4.158 1.891 4.158 4.16z"/>
    <path stroke="#83CDDF" stroke-miterlimit="10" stroke-width=".684" d="M23.814 484.692l128.707 128.767h118.123"/>
    <path fill="#83CDDF" d="M28.35 484.692c0 2.458-2.08 4.538-4.536 4.538-2.457 0-4.536-2.08-4.536-4.538s2.079-4.538 4.536-4.538c2.457 0 4.536 2.08 4.536 4.538zM275.369 613.459c0 2.458-2.079 4.538-4.536 4.538-2.457 0-4.536-2.08-4.536-4.538s2.079-4.538 4.536-4.538c2.457 0 4.536 2.08 4.536 4.538zM1158.36 564.486v7.374h-1.13v-6.428h-1.7v-.946h2.83zM1162.33 564.486v7.375h-1.13v-6.429h-1.7v-.946h2.83zM1164.03 568.079c0-2.458 1.33-3.782 3.03-3.782 1.7 0 3.02 1.324 3.02 3.782s-1.32 3.782-3.02 3.782c-1.7.189-3.03-1.324-3.03-3.782zm4.92 0c0-1.891-.76-2.836-1.89-2.836-1.14 0-1.89.945-1.89 2.836s.75 2.836 1.89 2.836c1.13.189 1.89-.756 1.89-2.836zM1173.29 564.486v7.375h-1.13v-6.429h-1.7v-.946h2.83zM1177.26 564.486v7.375h-1.13v-6.429h-1.7v-.946h2.83zM1178.96 568.079c0-2.458 1.33-3.782 3.03-3.782 1.7 0 3.02 1.324 3.02 3.782s-1.32 3.782-3.02 3.782c-1.7.189-3.03-1.324-3.03-3.782zm4.92 0c0-1.891-.76-2.836-1.89-2.836-1.14 0-1.89.945-1.89 2.836s.75 2.836 1.89 2.836c1.13.189 1.89-.756 1.89-2.836zM1188.22 564.486v7.375h-1.13v-6.429h-1.7v-.946h2.83zM1192.19 564.486v7.375h-1.13v-6.429h-1.7v-.946h2.83zM1193.89 568.079c0-2.458 1.33-3.782 3.03-3.782 1.7 0 3.02 1.324 3.02 3.782s-1.32 3.782-3.02 3.782c-1.89.189-3.03-1.324-3.03-3.782zm4.92 0c0-1.891-.76-2.836-1.89-2.836-1.14 0-1.89.945-1.89 2.836s.75 2.836 1.89 2.836c1.13.189 1.89-.756 1.89-2.836zM1203.15 564.486v7.375h-1.13v-6.429h-1.7v-.946h2.83z"/>
    <path stroke="#83CDDF" stroke-miterlimit="10" stroke-width=".684" d="M1274.22 530.073l-49.14 49.162h-77.49"/>
    <path fill="#83CDDF" d="M1147.59 582.072c1.57 0 2.83-1.27 2.83-2.836 0-1.567-1.26-2.837-2.83-2.837s-2.84 1.27-2.84 2.837c0 1.566 1.27 2.836 2.84 2.836zM1274.22 532.909c1.56 0 2.83-1.269 2.83-2.836 0-1.566-1.27-2.836-2.83-2.836-1.57 0-2.84 1.27-2.84 2.836 0 1.567 1.27 2.836 2.84 2.836z"/>
</svg>
