<svg xmlns="http://www.w3.org/2000/svg" width="21" height="81" fill="none" viewBox="0 0 21 81">
    <mask id="npzbaws11a" width="21" height="81" x="0" y="0" maskUnits="userSpaceOnUse">
        <path fill="#83CDDF" d="M20.223 43.934v-4.916l-10.206 10.21L0 39.018v4.916l7.749 7.753 2.268 2.269 2.457-2.27 7.749-7.752z"/>
        <path fill="#83CDDF" d="M20.223 30.727V26L10.017 36.21 0 26v4.727l10.017 10.21 10.206-10.21zM20.223 69.839v-4.727L10.017 75.133 0 65.112v4.727l7.749 7.752 2.268 2.458 2.457-2.458 7.749-7.752z"/>
        <path fill="#83CDDF" d="M20.223 56.727V52L10.017 62.21 0 52v4.727l10.017 10.21 10.206-10.21zM20.223 17.839v-4.727L10.017 23.133 0 13.112v4.727l7.749 7.752 2.268 2.458 2.457-2.458 7.749-7.752z"/>
        <path fill="#83CDDF" d="M20.223 4.727V0L10.017 10.21 0 0v4.727l10.017 10.21 10.206-10.21z"/>
    </mask>
    <g mask="url(#npzbaws11a)">
        <path fill="url(#paint0_linear)" d="M2 0H19V80H2z"/>
    </g>
    <defs>
        <linearGradient id="paint0_linear" x1="10.5" x2="10.5" y1="0" y2="80" gradientUnits="userSpaceOnUse">
            <stop stop-color="#83CDDF" stop-opacity=".04"/>
            <stop offset="1" stop-color="#83CDDF"/>
        </linearGradient>
    </defs>
</svg>
