<svg xmlns="http://www.w3.org/2000/svg" width="175" height="24" fill="none" viewBox="0 0 175 24">
    <g clip-path="url(#clip0)">
        <path fill="url(#paint0_linear)" d="M165.989 5.647H9.012c-4.816 0-8.721 3.905-8.721 8.721 0 4.816 3.905 8.721 8.72 8.721H165.99c4.816 0 8.721-3.904 8.721-8.721 0-4.816-3.905-8.72-8.721-8.72z"/>
        <path stroke="#fff" stroke-miterlimit="10" stroke-width=".581" d="M165.989.29H9.012C4.196.29.291 4.196.291 9.013c0 4.816 3.905 8.72 8.72 8.72H165.99c4.816 0 8.721-3.904 8.721-8.72 0-4.817-3.905-8.721-8.721-8.721z"/>
        <path fill="#fff" d="M49.273 8.71l.882.145c-.058.824-.245 1.633-.555 2.398-.252-.162-.524-.293-.808-.39.282-.685.445-1.413.481-2.153zm7.495-.827l.89.654c-.678.563-1.099.905-1.263 1.027.37.477.85.857 1.4 1.108-.255.26-.472.553-.645.872-.005.008-.008.018-.01.027-.695-.412-1.259-1.014-1.626-1.735v1.054c0 .418-.087.693-.263.826-.035.024-.071.045-.109.064-.41.133-.841.189-1.272.164-.04-.323-.125-.638-.254-.936.212.006.466.009.763.009.09-.018.14-.064.145-.136V8.655c-.339 1.38-.969 2.353-1.89 2.916-.166-.252-.368-.478-.599-.672l-.082-.064c.654-.37 1.16-.954 1.436-1.653h-.9V8.32l-.654.29c-.012-.06-.057-.241-.136-.544l-.463.036v3.852h-.954v-3.78l-1.29.11-.109-.963.663-.037c.17-.205.309-.387.418-.545-.306-.47-.659-.91-1.054-1.308l.536-.745c.055.055.127.122.218.2.27-.514.493-1.052.663-1.608l.963.336c-.317.649-.668 1.28-1.053 1.89.096.109.196.23.3.363.304-.485.583-.985.835-1.499l.9.418c-.649.993-1.224 1.808-1.727 2.444l.809-.045c-.079-.176-.179-.376-.3-.6l.781-.327c.362.603.637 1.255.818 1.935.004.011.007.024.009.036l-.1.055h1.236l.172-.028.554.218v-.817h-1.79v-3.47h1.445c.13-.302.239-.611.327-.927l1.245.172c-.091.188-.227.44-.41.754h1.918v3.47h-1.745v.082c.108.365.244.72.41 1.063.302-.285.585-.592.845-.917zM51.318 8.9l.772-.227c.225.506.377 1.041.454 1.59l-.818.254c-.058-.555-.196-1.1-.408-1.617zm2.407-3.86v.472h2.498V5.04h-2.498zm0 1.28v.49h2.498v-.49h-2.498zM72.203 10.381h3.933v1.117H67.68v-1.117h3.334V3.377h1.19V6.04h3.28v1.126h-3.28v3.216zM88.291 4.685c-.066.315-.14.627-.222.936-.082.31-.175.615-.278.918h1.744v4.278h-1.78v.681h-.918V8.601c-.06.09-.123.178-.186.263l-.195.255c-.01-.097-.027-.193-.05-.287-.028-.118-.06-.24-.096-.367-.036-.128-.074-.252-.113-.373-.032-.102-.07-.202-.114-.3.306-.422.546-.887.713-1.38.198-.564.354-1.14.468-1.727h-.981v-.999h3.37v1h-1.362zm.3 2.826h-.836v2.325h.836V7.511zm6.26.563h-.982v3.87h-1.054v-3.87h-1.053c-.019.34-.05.687-.096 1.045-.045.354-.116.705-.213 1.049-.096.34-.224.67-.382.986-.156.312-.358.6-.6.853-.052-.058-.108-.112-.168-.163-.07-.06-.143-.12-.222-.177l-.233-.168c-.068-.05-.14-.096-.213-.136.199-.217.367-.46.5-.723.133-.263.24-.538.322-.822.082-.286.144-.577.186-.872.042-.297.07-.587.082-.872h-.863V7.029h.881V4.731H90.1V3.713h4.56v1.018h-.79v2.298h.981v1.045zm-2.036-1.045V4.731H91.78v2.298h1.035zM104.771 5.676v-.872h3.779v.872h-3.779zm3.406 2.98v2.806h-2.035v.364h-.954v-3.17h2.989zm-2.961-1.718v-.844h2.988v.844h-2.988zm0 1.254v-.827h2.988v.827h-2.988zm3.007-4.642v.845h-2.953V3.55h2.953zm-1.018 5.977h-1.063V10.6h1.063V9.527zm6.25-4.278v1.063h-1.036v4.269c0 .509-.103.848-.308 1.017-.064.044-.131.084-.2.118-.333.152-.948.227-1.845.228-.068-.408-.196-.803-.381-1.173.406.019.872.028 1.399.028.151-.006.233-.06.245-.163.006-.021.009-.043.009-.064v-4.26h-2.679V5.249h2.679V3.277h1.081V5.25h1.036zm-2.562 3.815l-.972.518c-.236-.706-.57-1.375-.99-1.99-.027-.05-.058-.098-.091-.145l.918-.454c.455.61.824 1.28 1.099 1.99.012.028.024.057.036.081zM127.099 3.268h1.045c.975.88 2.136 1.53 3.397 1.899.194.06.388.115.581.164-.237.285-.447.592-.626.917-.267-.09-.446-.154-.536-.19v2.425h-6.459V6.048c-.145.055-.355.13-.627.227-.154-.31-.346-.6-.572-.863 1.1-.317 2.136-.824 3.061-1.499.266-.19.512-.406.736-.645zm-2.38 2.69h5.986c-.463-.193-.915-.411-1.353-.655v.318h-3.262v-.354c-.443.256-.901.486-1.371.69zm.291 5.995v-3.17h5.468v3.143h-1.135v-.228H126.1v.255h-1.09zm.408-4.152h.645c-.059-.334-.166-.659-.318-.963l.718-.209h-1.045v1.172zm3.925 1.708H126.1v.364h3.243v-.364zm-3.243 1.472h3.243v-.373H126.1v.373zm1.126-3.18V6.63h-.718c.166.316.291.652.373 1l-.6.172h.945zm-.554-2.898h2.026c-.368-.228-.715-.49-1.036-.78-.305.29-.636.552-.99.78zm2.126 1.726h-.682v1.172h.854l-.545-.145c.15-.332.274-.676.373-1.027zm1.199 1.172V6.63h-1.009l.727.182c-.194.394-.363.724-.509.99h.791z"/>
    </g>
    <defs>
        <linearGradient id="paint0_linear" x1=".291" x2="174.71" y1="14.368" y2="14.368" gradientUnits="userSpaceOnUse">
            <stop stop-color="#02304A"/>
            <stop offset="1" stop-color="#056C83"/>
        </linearGradient>
        <clipPath id="clip0">
            <path fill="#fff" d="M0 0H175V23.089H0z"/>
        </clipPath>
    </defs>
</svg>
