<svg xmlns="http://www.w3.org/2000/svg" width="30" height="30" fill="none" viewBox="0 0 30 30">
    <path fill="#fff" fill-opacity=".2" stroke="#fff" d="M29.5 15c0 8.008-6.492 14.5-14.5 14.5S.5 23.008.5 15 6.992.5 15 .5 29.5 6.992 29.5 15z"/>
    <path fill="#fff" d="M20.484 17.614c-.48-.326-1.111-.324-1.59.004l-.688.473c-.767.526-1.787.498-2.524-.07-.695-.535-1.358-1.108-1.988-1.716-.608-.63-1.18-1.292-1.716-1.987-.567-.737-.595-1.757-.07-2.524l.474-.69c.328-.477.33-1.108.004-1.588l-1.971-2.905C9.87 5.81 8.81 5.541 7.95 5.99c-1.737.906-2.465 3.001-1.67 4.791 1.146 2.577 2.684 4.934 4.54 6.998l1.402 1.402c2.064 1.856 4.421 3.394 6.998 4.54 1.79.795 3.885.067 4.79-1.67h.001c.449-.86.18-1.92-.623-2.465l-2.904-1.97z"/>
</svg>
